<svg width="200" height="200" viewBox="0 0 200 200" fill="none" xmlns="http://www.w3.org/2000/svg">
<rect width="200" height="200"/>
<path d="M47.8608 176.563L147.139 150.431V40.4371L134.371 43.7979V40.3771L151 36V152.836L44 181L47.8608 176.563Z" fill="#111111"/>
<path d="M48.0333 177.579H160.967V67.4211H147.066V64H165V181H44L48.0333 177.579Z" fill="#111111"/>
<rect width="99.179" height="109.859" transform="matrix(0.870947 -0.491378 0 1 46 67.7344)" stroke="#111111" stroke-width="5"/>
<path d="M94.1439 68.8423C93.084 66.0076 88.8559 68.393 87.796 72.4237L83.1552 90.0724L67.7993 98.5323C64.3878 100.412 63.0873 106.284 65.9888 106.708L78.1197 108.481L73.2988 125.472C72.1151 129.644 75.5417 130.898 78.2815 127.295L90.9699 110.61L103.658 112.978C106.398 113.489 109.825 108.369 108.641 105.533L103.82 93.9807L115.951 78.5199C118.853 74.822 117.552 70.4171 114.141 72.3871L98.7847 81.2544L94.1439 68.8423Z" stroke="#111111" stroke-width="5"/>
<mask id="path-5-inside-1_1_28" fill="white">
<path d="M45.0483 93.1333C39.3962 92.6029 35 88.5353 35 83.5959C35 78.2963 40.0611 74 46.3043 74C52.5476 74 57.6087 78.2963 57.6087 83.5959C57.6087 85.71 56.8034 87.6643 55.439 89.25L52.4405 87.3107C53.322 86.2635 53.8406 84.9811 53.8406 83.5959C53.8406 80.0628 50.4665 77.1986 46.3043 77.1986C42.1422 77.1986 38.7681 80.0628 38.7681 83.5959C38.7681 86.7658 41.484 89.3972 45.0483 89.9048V93.1333Z"/>
</mask>
<path d="M45.0483 93.1333C39.3962 92.6029 35 88.5353 35 83.5959C35 78.2963 40.0611 74 46.3043 74C52.5476 74 57.6087 78.2963 57.6087 83.5959C57.6087 85.71 56.8034 87.6643 55.439 89.25L52.4405 87.3107C53.322 86.2635 53.8406 84.9811 53.8406 83.5959C53.8406 80.0628 50.4665 77.1986 46.3043 77.1986C42.1422 77.1986 38.7681 80.0628 38.7681 83.5959C38.7681 86.7658 41.484 89.3972 45.0483 89.9048V93.1333Z" fill="#111111"/>
<path d="M45.0483 93.1333L44.5812 98.1115L50.0483 98.6245V93.1333H45.0483ZM55.439 89.25L52.7236 93.4484L56.385 95.8165L59.2291 92.5112L55.439 89.25ZM52.4405 87.3107L48.6151 84.0911L44.9637 88.4296L49.7252 91.5092L52.4405 87.3107ZM45.0483 89.9048H50.0483V85.5664L45.7533 84.9547L45.0483 89.9048ZM30 83.5959C30 91.7775 37.0767 97.4073 44.5812 98.1115L45.5154 88.1552C41.7157 87.7986 40 85.293 40 83.5959H30ZM46.3043 69C38.0991 69 30 74.7981 30 83.5959H40C40 81.7944 42.0231 79 46.3043 79V69ZM62.6087 83.5959C62.6087 74.7981 54.5096 69 46.3043 69V79C50.5856 79 52.6087 81.7944 52.6087 83.5959H62.6087ZM59.2291 92.5112C61.2911 90.1147 62.6087 87.0281 62.6087 83.5959H52.6087C52.6087 84.3918 52.3156 85.214 51.6489 85.9888L59.2291 92.5112ZM49.7252 91.5092L52.7236 93.4484L58.1544 85.0516L55.1559 83.1123L49.7252 91.5092ZM56.266 90.5304C57.8275 88.675 58.8406 86.2756 58.8406 83.5959H48.8406C48.8406 83.6569 48.8304 83.7173 48.8033 83.7879C48.7748 83.8621 48.7196 83.9669 48.6151 84.0911L56.266 90.5304ZM58.8406 83.5959C58.8406 76.5646 52.4285 72.1986 46.3043 72.1986V82.1986C47.2518 82.1986 47.976 82.5264 48.3975 82.8842C48.8083 83.2329 48.8406 83.5022 48.8406 83.5959H58.8406ZM46.3043 72.1986C40.1802 72.1986 33.7681 76.5646 33.7681 83.5959H43.7681C43.7681 83.5022 43.8003 83.2329 44.2112 82.8842C44.6327 82.5264 45.3569 82.1986 46.3043 82.1986V72.1986ZM33.7681 83.5959C33.7681 89.8784 38.987 94.092 44.3434 94.8549L45.7533 84.9547C44.9727 84.8436 44.4113 84.5154 44.0961 84.2022C43.796 83.904 43.7681 83.6892 43.7681 83.5959H33.7681ZM50.0483 93.1333V89.9048H40.0483V93.1333H50.0483Z" fill="#111111" mask="url(#path-5-inside-1_1_28)"/>
<mask id="path-7-inside-2_1_28" fill="white">
<path d="M45.0483 119.1C39.3962 118.57 35 114.502 35 109.563C35 104.263 40.0611 99.9667 46.3043 99.9667C52.5476 99.9667 57.6087 104.263 57.6087 109.563C57.6087 111.677 56.8034 113.631 55.439 115.217L52.4405 113.277C53.322 112.23 53.8406 110.948 53.8406 109.563C53.8406 106.029 50.4665 103.165 46.3043 103.165C42.1422 103.165 38.7681 106.029 38.7681 109.563C38.7681 112.732 41.484 115.364 45.0483 115.871V119.1Z"/>
</mask>
<path d="M45.0483 119.1C39.3962 118.57 35 114.502 35 109.563C35 104.263 40.0611 99.9667 46.3043 99.9667C52.5476 99.9667 57.6087 104.263 57.6087 109.563C57.6087 111.677 56.8034 113.631 55.439 115.217L52.4405 113.277C53.322 112.23 53.8406 110.948 53.8406 109.563C53.8406 106.029 50.4665 103.165 46.3043 103.165C42.1422 103.165 38.7681 106.029 38.7681 109.563C38.7681 112.732 41.484 115.364 45.0483 115.871V119.1Z" fill="#111111"/>
<path d="M45.0483 119.1L44.5812 124.078L50.0483 124.591V119.1H45.0483ZM55.439 115.217L52.7236 119.415L56.385 121.783L59.2291 118.478L55.439 115.217ZM52.4405 113.277L48.6151 110.058L44.9637 114.396L49.7252 117.476L52.4405 113.277ZM45.0483 115.871H50.0483V111.533L45.7533 110.921L45.0483 115.871ZM30 109.563C30 117.744 37.0767 123.374 44.5812 124.078L45.5154 114.122C41.7157 113.765 40 111.26 40 109.563H30ZM46.3043 94.9667C38.0991 94.9667 30 100.765 30 109.563H40C40 107.761 42.0231 104.967 46.3043 104.967V94.9667ZM62.6087 109.563C62.6087 100.765 54.5096 94.9667 46.3043 94.9667V104.967C50.5856 104.967 52.6087 107.761 52.6087 109.563H62.6087ZM59.2291 118.478C61.2911 116.081 62.6087 112.995 62.6087 109.563H52.6087C52.6087 110.358 52.3156 111.181 51.6489 111.955L59.2291 118.478ZM49.7252 117.476L52.7236 119.415L58.1544 111.018L55.1559 109.079L49.7252 117.476ZM56.266 116.497C57.8275 114.642 58.8406 112.242 58.8406 109.563H48.8406C48.8406 109.624 48.8304 109.684 48.8033 109.755C48.7748 109.829 48.7196 109.934 48.6151 110.058L56.266 116.497ZM58.8406 109.563C58.8406 102.531 52.4285 98.1653 46.3043 98.1653V108.165C47.2518 108.165 47.976 108.493 48.3975 108.851C48.8083 109.2 48.8406 109.469 48.8406 109.563H58.8406ZM46.3043 98.1653C40.1802 98.1653 33.7681 102.531 33.7681 109.563H43.7681C43.7681 109.469 43.8003 109.2 44.2112 108.851C44.6327 108.493 45.3569 108.165 46.3043 108.165V98.1653ZM33.7681 109.563C33.7681 115.845 38.987 120.059 44.3434 120.822L45.7533 110.921C44.9727 110.81 44.4113 110.482 44.0961 110.169C43.796 109.871 43.7681 109.656 43.7681 109.563H33.7681ZM50.0483 119.1V115.871H40.0483V119.1H50.0483Z" fill="#111111" mask="url(#path-7-inside-2_1_28)"/>
<mask id="path-9-inside-3_1_28" fill="white">
<path d="M45.0483 145.067C39.3962 144.536 35 140.469 35 135.529C35 130.23 40.0611 125.933 46.3043 125.933C52.5476 125.933 57.6087 130.23 57.6087 135.529C57.6087 137.643 56.8034 139.598 55.439 141.183L52.4405 139.244C53.322 138.197 53.8406 136.914 53.8406 135.529C53.8406 131.996 50.4665 129.132 46.3043 129.132C42.1422 129.132 38.7681 131.996 38.7681 135.529C38.7681 138.699 41.484 141.331 45.0483 141.838V145.067Z"/>
</mask>
<path d="M45.0483 145.067C39.3962 144.536 35 140.469 35 135.529C35 130.23 40.0611 125.933 46.3043 125.933C52.5476 125.933 57.6087 130.23 57.6087 135.529C57.6087 137.643 56.8034 139.598 55.439 141.183L52.4405 139.244C53.322 138.197 53.8406 136.914 53.8406 135.529C53.8406 131.996 50.4665 129.132 46.3043 129.132C42.1422 129.132 38.7681 131.996 38.7681 135.529C38.7681 138.699 41.484 141.331 45.0483 141.838V145.067Z" fill="#111111"/>
<path d="M45.0483 145.067L44.5812 150.045L50.0483 150.558V145.067H45.0483ZM55.439 141.183L52.7236 145.382L56.385 147.75L59.2291 144.445L55.439 141.183ZM52.4405 139.244L48.6151 136.024L44.9637 140.363L49.7252 143.442L52.4405 139.244ZM45.0483 141.838H50.0483V137.5L45.7533 136.888L45.0483 141.838ZM30 135.529C30 143.711 37.0767 149.341 44.5812 150.045L45.5154 140.089C41.7157 139.732 40 137.226 40 135.529H30ZM46.3043 120.933C38.0991 120.933 30 126.731 30 135.529H40C40 133.728 42.0231 130.933 46.3043 130.933V120.933ZM62.6087 135.529C62.6087 126.731 54.5096 120.933 46.3043 120.933V130.933C50.5856 130.933 52.6087 133.728 52.6087 135.529H62.6087ZM59.2291 144.445C61.2911 142.048 62.6087 138.961 62.6087 135.529H52.6087C52.6087 136.325 52.3156 137.147 51.6489 137.922L59.2291 144.445ZM49.7252 143.442L52.7236 145.382L58.1544 136.985L55.1559 135.046L49.7252 143.442ZM56.266 142.464C57.8275 140.608 58.8406 138.209 58.8406 135.529H48.8406C48.8406 135.59 48.8304 135.651 48.8033 135.721C48.7748 135.795 48.7196 135.9 48.6151 136.024L56.266 142.464ZM58.8406 135.529C58.8406 128.498 52.4285 124.132 46.3043 124.132V134.132C47.2518 134.132 47.976 134.46 48.3975 134.818C48.8083 135.166 48.8406 135.436 48.8406 135.529H58.8406ZM46.3043 124.132C40.1802 124.132 33.7681 128.498 33.7681 135.529H43.7681C43.7681 135.436 43.8003 135.166 44.2112 134.818C44.6327 134.46 45.3569 134.132 46.3043 134.132V124.132ZM33.7681 135.529C33.7681 141.812 38.987 146.025 44.3434 146.788L45.7533 136.888C44.9727 136.777 44.4113 136.449 44.0961 136.136C43.796 135.837 43.7681 135.623 43.7681 135.529H33.7681ZM50.0483 145.067V141.838H40.0483V145.067H50.0483Z" fill="#111111" mask="url(#path-9-inside-3_1_28)"/>
<mask id="path-11-inside-4_1_28" fill="white">
<path d="M45.0483 171.033C39.3962 170.503 35 166.435 35 161.496C35 156.196 40.0611 151.9 46.3043 151.9C52.5476 151.9 57.6087 156.196 57.6087 161.496C57.6087 163.61 56.8034 165.564 55.439 167.15L52.4405 165.211C53.322 164.163 53.8406 162.881 53.8406 161.496C53.8406 157.963 50.4665 155.099 46.3043 155.099C42.1422 155.099 38.7681 157.963 38.7681 161.496C38.7681 164.666 41.484 167.297 45.0483 167.805V171.033Z"/>
</mask>
<path d="M45.0483 171.033C39.3962 170.503 35 166.435 35 161.496C35 156.196 40.0611 151.9 46.3043 151.9C52.5476 151.9 57.6087 156.196 57.6087 161.496C57.6087 163.61 56.8034 165.564 55.439 167.15L52.4405 165.211C53.322 164.163 53.8406 162.881 53.8406 161.496C53.8406 157.963 50.4665 155.099 46.3043 155.099C42.1422 155.099 38.7681 157.963 38.7681 161.496C38.7681 164.666 41.484 167.297 45.0483 167.805V171.033Z" fill="#111111"/>
<path d="M45.0483 171.033L44.5812 176.011L50.0483 176.524V171.033H45.0483ZM55.439 167.15L52.7236 171.348L56.385 173.716L59.2291 170.411L55.439 167.15ZM52.4405 165.211L48.6151 161.991L44.9637 166.33L49.7252 169.409L52.4405 165.211ZM45.0483 167.805H50.0483V163.466L45.7533 162.855L45.0483 167.805ZM30 161.496C30 169.677 37.0767 175.307 44.5812 176.011L45.5154 166.055C41.7157 165.699 40 163.193 40 161.496H30ZM46.3043 146.9C38.0991 146.9 30 152.698 30 161.496H40C40 159.694 42.0231 156.9 46.3043 156.9V146.9ZM62.6087 161.496C62.6087 152.698 54.5096 146.9 46.3043 146.9V156.9C50.5856 156.9 52.6087 159.694 52.6087 161.496H62.6087ZM59.2291 170.411C61.2911 168.015 62.6087 164.928 62.6087 161.496H52.6087C52.6087 162.292 52.3156 163.114 51.6489 163.889L59.2291 170.411ZM49.7252 169.409L52.7236 171.348L58.1544 162.952L55.1559 161.012L49.7252 169.409ZM56.266 168.43C57.8275 166.575 58.8406 164.176 58.8406 161.496H48.8406C48.8406 161.557 48.8304 161.617 48.8033 161.688C48.7748 161.762 48.7196 161.867 48.6151 161.991L56.266 168.43ZM58.8406 161.496C58.8406 154.465 52.4285 150.099 46.3043 150.099V160.099C47.2518 160.099 47.976 160.426 48.3975 160.784C48.8083 161.133 48.8406 161.402 48.8406 161.496H58.8406ZM46.3043 150.099C40.1802 150.099 33.7681 154.465 33.7681 161.496H43.7681C43.7681 161.402 43.8003 161.133 44.2112 160.784C44.6327 160.426 45.3569 160.099 46.3043 160.099V150.099ZM33.7681 161.496C33.7681 167.778 38.987 171.992 44.3434 172.755L45.7533 162.855C44.9727 162.744 44.4113 162.415 44.0961 162.102C43.796 161.804 43.7681 161.589 43.7681 161.496H33.7681ZM50.0483 171.033V167.805H40.0483V171.033H50.0483Z" fill="#111111" mask="url(#path-11-inside-4_1_28)"/>
</svg>
